<svg xmlns="http://www.w3.org/2000/svg" xmlns:xlink="http://www.w3.org/1999/xlink" viewBox="0 0 280 250" preserveAspectRatio="xMidYMid" style="display: block; shape-rendering: auto; background: transparent;" width="280" height="250"><style type="text/css">
  .ld-text text {
    text-anchor: middle;
    dominant-baseline: middle;
    font-size: 40px;
    opacity: 0;
    user-select: none;
    pointer-events: none;
  }
</style>
<g class="ld-text" style="transform-origin:140px 125px;transform:scale(1)">
<g transform="translate(140,125)">
  <g transform="scale(0.5000) translate(0,0)"><g class="path" style="opacity: 0; transform-origin: -207.72px -5.01px; transform: matrix3d(0, 0, 0, 0, 0, 0, 0, 0, 0, 0, 0, 0, 0, 0, 0, 1); animation: 1s linear 0s 1 normal forwards running animate-znvp2s243r; transform-box: view-box;"><path d="M27.84 1.66L27.84 1.66L28.16-0.82Q28.16-4.50 25.28-5.54L25.28-5.54Q23.04-6.26 21.84-6.26L21.84-6.26L21.76-6.26Q19.36-6.26 17.60-5.50Q15.84-4.74 15.04-3.62L15.04-3.62Q13.36-1.30 13.12 1.26L13.12 1.26Q13.12 4.30 15.84 6.50Q18.56 8.70 22.44 10.34Q26.32 11.98 30.20 13.90Q34.08 15.82 36.80 19.42Q39.52 23.02 39.52 28.06L39.52 28.06Q39.52 37.90 33.32 42.78Q27.12 47.66 19.24 47.66Q11.36 47.66 6.20 44.10Q1.04 40.54 1.04 34.54L1.04 34.54L1.04 34.46Q1.04 31.50 1.96 29.30Q2.88 27.10 4.16 26.06L4.16 26.06Q6.80 23.90 8.96 23.74L8.96 23.74L9.92 23.66Q12.16 23.66 14 24.74Q15.84 25.82 15.84 27.74L15.84 27.74Q15.84 28.70 14.80 29.34Q13.76 29.98 13 31.26Q12.24 32.54 12.16 33.42L12.16 33.42L12 34.30Q12 39.18 16.48 40.78L16.48 40.78Q18.08 41.34 19.04 41.34L19.04 41.34Q23.44 41.34 26.12 38.70Q28.80 36.06 28.80 31.98L28.80 31.98Q28.80 27.10 24.64 24.06L24.64 24.06Q21.52 21.82 17.88 20.30Q14.24 18.78 12.96 18.14Q11.68 17.50 10.24 16.62Q8.80 15.74 7.04 14.14L7.04 14.14Q3.20 10.78 3.20 5.06Q3.20-0.66 6.32-4.58L6.32-4.58Q11.92-11.70 23.12-11.70L23.12-11.70Q29.04-11.70 33.12-9.42Q37.20-7.14 37.20-3.14L37.20-3.14Q37.20-0.26 35.56 1.66Q33.92 3.58 31.36 3.58L31.36 3.58Q30.16 3.58 29 3.10Q27.84 2.62 27.84 1.66" style="fill: rgb(0, 0, 0);" transform="translate(-228.000,-22.992)"></path></g><g class="path" style="opacity: 0; transform-origin: -170.2px 5.71px; transform: matrix3d(0, 0, 0, 0, 0, 0, 0, 0, 0, 0, 0, 0, 0, 0, 0, 1); animation: 1s linear 0.044s 1 normal forwards running animate-znvp2s243r; transform-box: view-box;"><path d="M51.04 15.82L51.04 15.82Q48.96 15.90 48.04 15.94Q47.12 15.98 47.12 15.50Q47.12 15.02 47.60 14.54L47.60 14.54Q52.72 9.82 64.88 9.82L64.88 9.82Q69.04 9.82 71.44 10.54L71.44 10.54L72.24 10.78Q73.20 11.18 73.20 11.66L73.20 11.66Q73.20 12.06 72.64 12.30L72.64 12.30Q70.48 12.94 68.48 14.34Q66.48 15.74 66.48 16.30L66.48 16.30L66.96 16.86Q69.52 18.30 70.92 21.42Q72.32 24.54 72.48 26.94L72.48 26.94L72.64 29.42Q72.64 37.34 68.24 42.46Q63.84 47.58 56.24 47.58L56.24 47.58Q52.40 47.58 49.60 46.22Q46.80 44.86 45.48 43.14Q44.16 41.42 43.36 39.26L43.36 39.26Q42.40 36.30 42.40 33.14Q42.40 29.98 43.48 26.78Q44.56 23.58 45.96 22.06Q47.36 20.54 49.12 19.58L49.12 19.58Q51.36 18.38 52.72 18.38Q54.08 18.38 54.08 18.94L54.08 18.94L53.60 19.74Q51.84 21.82 51.08 25.18Q50.32 28.54 50.32 31.14Q50.32 33.74 50.96 36.30Q51.60 38.86 52.40 40.10Q53.20 41.34 54.24 41.98L54.24 41.98Q55.76 42.94 57.44 42.94Q59.12 42.94 60.72 41.62Q62.32 40.30 63.04 38.14L63.04 38.14Q64.48 34.14 64.48 29.90L64.48 29.90Q64.48 23.18 61.08 19.50Q57.68 15.82 51.04 15.82" style="fill: rgb(0, 0, 0);" transform="translate(-228.000,-22.992)"></path></g><g class="path" style="opacity: 0; transform-origin: -137.04px 5.43px; transform: matrix3d(0, 0, 0, 0, 0, 0, 0, 0, 0, 0, 0, 0, 0, 0, 0, 1); animation: 1s linear 0.088s 1 normal forwards running animate-znvp2s243r; transform-box: view-box;"><path d="M105.12 10.38L105.12 10.38Q103.68 19.02 103.68 32.38L103.68 32.38Q103.68 42.22 104.48 45.34L104.48 45.34L104.80 46.38Q104.80 47.42 103.04 47.42L103.04 47.42Q96.88 47.42 96 43.98L96 43.98Q95.92 43.58 95.64 43.58Q95.36 43.58 95.12 43.90L95.12 43.90Q92.64 47.18 87.44 47.18L87.44 47.18Q84.56 47.18 81.44 45.74L81.44 45.74Q79.52 44.86 78.32 42.66Q77.12 40.46 77.12 37.26L77.12 37.26L78.32 19.74Q78.32 14.22 77.20 11.90L77.20 11.90Q76.80 11.02 76.80 10.78L76.80 10.78Q76.80 10.30 77.20 10.14L77.20 10.14Q78.48 9.74 80.48 9.74L80.48 9.74Q88.24 9.74 88.24 16.14L88.24 16.14Q88.24 18.14 86.60 25.26Q84.96 32.38 84.96 35.38Q84.96 38.38 86.28 39.98Q87.60 41.58 89.96 41.58Q92.32 41.58 93.68 39.90Q95.04 38.22 95.28 36.54L95.28 36.54L95.52 34.86Q95.84 32.06 95.84 25.02Q95.84 17.98 95.40 16.10Q94.96 14.22 94.96 13.74L94.96 13.74Q94.96 11.74 98.16 10.58Q101.36 9.42 103.92 9.42L103.92 9.42Q105.12 9.42 105.12 10.38" style="fill: rgb(0, 0, 0);" transform="translate(-228.000,-22.992)"></path></g><g class="path" style="opacity: 0; transform-origin: -113.92px -3.89px; transform: matrix3d(0, 0, 0, 0, 0, 0, 0, 0, 0, 0, 0, 0, 0, 0, 0, 1); animation: 1s linear 0.132s 1 normal forwards running animate-znvp2s243r; transform-box: view-box;"><path d="M119.76 0.22L119.76 0.22L119.28 29.58Q119.28 43.34 120.16 46.06L120.16 46.06Q120.40 46.54 120.40 47.02L120.40 47.02Q120.40 47.98 118.08 47.98Q115.76 47.98 112.92 46.82Q110.08 45.66 110.08 43.82L110.08 43.82Q111.68 32.62 111.68 13.90L111.68 13.90L111.36 1.66Q111.20-0.58 110.44-2.18Q109.68-3.78 108.96-4.26L108.96-4.26L108.32-4.66Q107.76-4.98 107.76-5.38L107.76-5.38Q107.76-6.50 111.24-8.14Q114.72-9.78 118-9.78L118-9.78Q119.28-9.78 119.44-8.90L119.44-8.90Q119.76-6.82 119.76 0.22" style="fill: rgb(0, 0, 0);" transform="translate(-228.000,-22.992)"></path></g><g class="path" style="opacity: 0; transform-origin: -91.44px 5.71px; transform: matrix3d(0, 0, 0, 0, 0, 0, 0, 0, 0, 0, 0, 0, 0, 0, 0, 1); animation: 1s linear 0.176s 1 normal forwards running animate-znvp2s243r; transform-box: view-box;"><path d="M149.52 35.02L149.52 35.02Q149.52 38.46 148.20 41.02Q146.88 43.58 145.20 44.78Q143.52 45.98 141.20 46.70L141.20 46.70Q138.16 47.66 135.68 47.66L135.68 47.66Q130.48 47.66 127.04 45.62Q123.60 43.58 123.60 39.10L123.60 39.10Q123.60 36.46 125.04 34.78L125.04 34.78Q127.28 32.30 130.40 32.30L130.40 32.30Q131.36 32.30 131.36 33.18L131.36 33.18Q131.36 33.26 131 34.42Q130.64 35.58 130.64 37.34Q130.64 39.10 132.04 40.46Q133.44 41.82 135.44 41.82Q137.44 41.82 138.64 41.14Q139.84 40.46 140.32 39.42L140.32 39.42Q141.04 37.98 141.04 36.70L141.04 36.70Q141.04 34.38 138.72 32.70Q136.40 31.02 133.60 30.06Q130.80 29.10 128.48 26.86Q126.16 24.62 126.16 21.26L126.16 21.26Q126.16 15.50 129.80 12.62Q133.44 9.74 139.68 9.74L139.68 9.74Q142.40 9.74 145.40 10.50Q148.40 11.26 148.40 13.06Q148.40 14.86 147.80 16.38Q147.20 17.90 146.32 17.90L146.32 17.90Q145.84 17.90 145.68 17.54Q145.52 17.18 145.12 16.70Q144.72 16.22 143.20 15.46Q141.68 14.70 140.60 14.70Q139.52 14.70 139.16 14.74Q138.80 14.78 137.92 14.98Q137.04 15.18 136.32 15.58L136.32 15.58Q134.48 16.62 134.48 18.62L134.48 18.62Q134.48 19.90 135.04 20.50Q135.60 21.10 135.92 21.42Q136.24 21.74 137.04 22.18Q137.84 22.62 138.16 22.78Q138.48 22.94 139.60 23.46Q140.72 23.98 141.04 24.14L141.04 24.14Q149.52 28.14 149.52 35.02" style="fill: rgb(0, 0, 0);" transform="translate(-228.000,-22.992)"></path></g><g class="path" style="opacity: 0; transform-origin: -54.08px -23.13px; transform: matrix3d(0, 0, 0, 0, 0, 0, 0, 0, 0, 0, 0, 0, 0, 0, 0, 1); animation: 1s linear 0.22s 1 normal forwards running animate-znvp2s243r; transform-box: view-box;"><path d="M175.36 3.18L175.36 3.18L173.44 3.10Q171.28 3.10 170.64 4.14L170.64 4.14Q170.48 4.38 170.24 4.38L170.24 4.38Q169.20 4.38 169.20 0.82Q169.20-2.74 170.28-3.70Q171.36-4.66 174.04-4.66Q176.72-4.66 177.68-3.74Q178.64-2.82 178.64-0.66Q178.64 1.50 177.92 2.34Q177.20 3.18 175.36 3.18" style="fill: rgb(0, 0, 0);" transform="translate(-228.000,-22.992)"></path></g><g class="path" style="opacity: 0; transform-origin: -55.12px 5.83px; transform: matrix3d(0, 0, 0, 0, 0, 0, 0, 0, 0, 0, 0, 0, 0, 0, 0, 1); animation: 1s linear 0.264s 1 normal forwards running animate-znvp2s243r; transform-box: view-box;"><path d="M168.96 43.58L168.96 43.58L169.84 24.94Q169.84 18.30 168.32 15.90L168.32 15.90Q167.84 15.10 167.20 14.70L167.20 14.70Q166.72 14.54 166.72 14.06L166.72 14.06Q166.72 12.62 170.80 11.26Q174.88 9.90 176.76 9.90Q178.64 9.90 178.72 10.86L178.72 10.86Q178.72 12.46 178.28 19.94Q177.84 27.42 177.84 35.66Q177.84 43.90 178.80 45.90L178.80 45.90Q179.04 46.30 179.04 46.70L179.04 46.70Q179.04 47.74 176 47.74Q172.96 47.74 169.76 46.14L169.76 46.14Q168.96 45.74 168.96 43.58" style="fill: rgb(0, 0, 0);" transform="translate(-228.000,-22.992)"></path></g><g class="path" style="opacity: 0; transform-origin: -29.44px 5.51px; transform: matrix3d(0, 0, 0, 0, 0, 0, 0, 0, 0, 0, 0, 0, 0, 0, 0, 1); animation: 1s linear 0.308s 1 normal forwards running animate-znvp2s243r; transform-box: view-box;"><path d="M183.92 46.54L183.92 46.54Q185.36 37.90 185.36 25.82Q185.36 13.74 184.64 10.14L184.64 10.14Q184.64 9.10 187.04 9.10L187.04 9.10Q190.72 9.10 191.92 11.90L191.92 11.90Q192 12.14 192.32 12.14Q192.64 12.14 192.80 11.98L192.80 11.98Q195.28 9.42 200.48 9.42Q205.68 9.42 208.72 12.06Q211.76 14.70 211.76 19.74L211.76 19.74Q211.76 22.78 211.24 28.38Q210.72 33.98 210.72 36.70L210.72 36.70Q210.72 43.18 212.88 46.06L212.88 46.06Q213.20 46.46 213.20 46.86L213.20 46.86Q213.20 47.90 210.96 47.90L210.96 47.90Q201.04 47.90 201.04 39.10L201.04 39.10Q201.04 35.74 202.56 29.74Q204.08 23.74 204.08 20.62L204.08 20.62Q204.08 14.22 198.80 14.22L198.80 14.22Q196.24 14.22 194.92 15.74Q193.60 17.26 193.44 19.22Q193.28 21.18 193.28 26.62L193.28 26.62Q193.28 34.94 193.84 41.10L193.84 41.10L194 42.86Q194 45.10 191.08 46.34Q188.16 47.58 186.04 47.58Q183.92 47.58 183.92 46.54" style="fill: rgb(0, 0, 0);" transform="translate(-228.000,-22.992)"></path></g><g class="path" style="opacity: 0; transform-origin: 10px 0.63px; transform: matrix3d(0, 0, 0, 0, 0, 0, 0, 0, 0, 0, 0, 0, 0, 0, 0, 1); animation: 1s linear 0.352s 1 normal forwards running animate-znvp2s243r; transform-box: view-box;"><path d="M229.04 14.78L229.04 14.78L229.28 11.58Q229.36 10.86 230.40 10.86L230.40 10.86L233.20 10.86L232.88 4.46L232.88 4.14Q232.88 2.30 235.68 0.62Q238.48-1.06 240.80-1.06L240.80-1.06Q241.52-1.06 241.52-0.42L241.52-0.42L241.52-0.34Q241.20 1.82 240.88 10.78L240.88 10.78Q244.40 10.78 245.36 10.62Q246.32 10.46 246.40 10.46L246.40 10.46Q246.96 10.46 246.96 11.42Q246.96 12.38 246.08 13.86Q245.20 15.34 244.16 15.42L244.16 15.42L240.80 15.42Q240.72 18.14 240.72 24.58Q240.72 31.02 240.84 35.18Q240.96 39.34 241.12 41.46Q241.28 43.58 241.48 44.86Q241.68 46.14 241.80 46.70Q241.92 47.26 241.92 47.42L241.92 47.42Q241.92 48.22 240.88 48.30L240.88 48.30Q237.76 48.30 234.68 47.42Q231.60 46.54 231.60 44.38L231.60 44.38Q233.28 30.94 233.28 15.50L233.28 15.50Q231.12 15.50 230 15.66L230 15.66L229.92 15.66Q229.20 15.66 229.04 14.78" style="fill: rgb(0, 0, 0);" transform="translate(-228.000,-22.992)"></path></g><g class="path" style="opacity: 0; transform-origin: 34.56px -4.05px; transform: matrix3d(0, 0, 0, 0, 0, 0, 0, 0, 0, 0, 0, 0, 0, 0, 0, 1); animation: 1s linear 0.396s 1 normal forwards running animate-znvp2s243r; transform-box: view-box;"><path d="M258.48 3.02L258.48 3.02L258.40 10.78Q258.40 11.26 258.72 11.26Q259.04 11.26 259.36 11.02L259.36 11.02Q261.36 9.66 265.68 9.66L265.68 9.66Q272.96 9.66 275.76 14.62L275.76 14.62Q276.80 16.46 276.80 19.50Q276.80 22.54 276.44 27.90Q276.08 33.26 276.08 35.50L276.08 35.50Q276.08 43.34 278.32 45.90L278.32 45.90Q278.72 46.30 278.72 46.70L278.72 46.70Q278.72 47.50 275.28 47.50L275.28 47.50Q266 47.50 266 38.86L266 38.86Q266 35.50 267.60 29.42Q269.20 23.34 269.20 20.46Q269.20 17.58 267.84 16.02Q266.48 14.46 264.08 14.46Q261.68 14.46 260.28 15.50Q258.88 16.54 258.56 17.66L258.56 17.66L258.32 18.70Q258.24 20.22 258.24 28.38Q258.24 36.54 258.64 38.98Q259.04 41.42 259.04 41.74L259.04 41.74Q259.04 44.06 255.92 45.86Q252.80 47.66 249.76 47.66L249.76 47.66Q248.64 47.66 248.64 46.38L248.64 46.38L248.80 44.86Q250.56 31.42 250.56 15.74L250.56 15.74Q250.56 9.66 250.08 3.42L250.08 3.42L250 1.66Q249.84-0.58 249.08-2.18Q248.32-3.78 247.68-4.26L247.68-4.26L246.96-4.66Q246.40-4.98 246.40-5.38L246.40-5.38Q246.40-6.50 250.16-8.14Q253.92-9.78 255.96-9.78Q258-9.78 258.16-8.90L258.16-8.90Q258.48-4.82 258.48 3.02" style="fill: rgb(0, 0, 0);" transform="translate(-228.000,-22.992)"></path></g><g class="path" style="opacity: 0; transform-origin: 65.64px 5.59px; transform: matrix3d(0, 0, 0, 0, 0, 0, 0, 0, 0, 0, 0, 0, 0, 0, 0, 1); animation: 1s linear 0.44s 1 normal forwards running animate-znvp2s243r; transform-box: view-box;"><path d="M288.72 25.66L288.72 25.66L288.80 27.66Q288.80 28.14 289.44 28.14L289.44 28.14Q292 27.90 293.92 26.82Q295.84 25.74 296.80 24.38L296.80 24.38Q298.72 21.42 298.88 19.26L298.88 19.26L298.96 18.30Q298.96 13.98 295.52 13.98L295.52 13.98Q292.96 13.98 291.36 16.22L291.36 16.22Q288.72 19.74 288.72 25.66 zM306.16 36.30L306.16 36.30Q306.16 39.34 304.92 41.62Q303.68 43.90 302.12 44.98Q300.56 46.06 298.48 46.70L298.48 46.70Q295.84 47.50 293.44 47.50L293.44 47.50Q286.72 47.50 283.52 42.46Q280.32 37.42 280.32 29.62Q280.32 21.82 284.28 15.74Q288.24 9.66 296.16 9.66L296.16 9.66Q303.36 9.66 305.92 14.70L305.92 14.70Q306.96 16.62 306.96 18.34Q306.96 20.06 306.80 21.06Q306.64 22.06 305.68 24.06Q304.72 26.06 303.12 27.66Q301.52 29.26 298.08 30.70Q294.64 32.14 290 32.62L290 32.62Q289.36 32.62 289.36 33.18L289.36 33.18Q289.36 33.90 289.88 35.30Q290.40 36.70 291.04 37.66L291.04 37.66Q292.80 39.90 296.24 39.90L296.24 39.90Q299.68 39.90 302.08 37.66L302.08 37.66Q303.36 36.46 304.16 34.70L304.16 34.70Q304.48 34.06 305 34.06Q305.52 34.06 305.84 34.94Q306.16 35.82 306.16 36.30" style="fill: rgb(0, 0, 0);" transform="translate(-228.000,-22.992)"></path></g><g class="path" style="opacity: 0; transform-origin: 116.4px -5.13px; transform: matrix3d(0, 0, 0, 0, 0, 0, 0, 0, 0, 0, 0, 0, 0, 0, 0, 1); animation: 1s linear 0.484s 1 normal forwards running animate-znvp2s243r; transform-box: view-box;"><path d="M341.76-5.86L341.76-5.86Q340.32-5.86 339.28-5.38Q338.24-4.90 338.24-4.18L338.24-4.18Q337.28-0.82 337.28 15.86Q337.28 32.54 337.20 34.54L337.20 34.54Q338.72 36.94 341.92 36.94L341.92 36.94Q347.60 36.94 350.48 30.66Q353.36 24.38 353.36 14.90Q353.36 5.42 350.56-0.22Q347.76-5.86 341.76-5.86 zM326.48 46.86L326.48 46.86Q325.28 46.70 325.28 46.14L325.28 46.14L325.52 45.18Q327.52 40.86 327.52 14.06L327.52 14.06Q327.52 1.26 326.84-1.94Q326.16-5.14 325.76-6.02L325.76-6.02L325.36-6.82Q325.04-7.14 325.04-7.74Q325.04-8.34 326-8.74L326-8.74Q332.24-11.22 342.40-11.22L342.40-11.22Q363.76-11.22 363.76 15.98L363.76 15.98Q363.76 26.62 360 35.42L360 35.42Q358.48 38.78 356.48 41.22Q354.48 43.66 351.24 45.30Q348 46.94 344.08 46.94L344.08 46.94Q343.28 46.86 342.04 46.70Q340.80 46.54 338.36 45.50Q335.92 44.46 335.04 42.78L335.04 42.78Q332.08 46.86 326.48 46.86" style="fill: rgb(0, 0, 0);" transform="translate(-228.000,-22.992)"></path></g><g class="path" style="opacity: 0; transform-origin: 152.8px 5.43px; transform: matrix3d(0, 0, 0, 0, 0, 0, 0, 0, 0, 0, 0, 0, 0, 0, 0, 1); animation: 1s linear 0.528s 1 normal forwards running animate-znvp2s243r; transform-box: view-box;"><path d="M393.68 21.98L393.68 21.98L393.52 32.22Q393.52 42.86 395.84 45.02L395.84 45.02Q396.16 45.34 396.16 45.74L396.16 45.74Q396.16 46.94 391 46.94Q385.84 46.94 385.52 43.90L385.52 43.90Q385.44 43.18 385.44 40.94L385.44 40.94L385.76 28.14Q385.76 27.58 385.12 27.58L385.12 27.58Q381.28 27.58 377.92 29.74Q374.56 31.90 374.56 35.26L374.56 35.26Q374.56 37.02 375.52 38.22Q376.48 39.42 377.88 39.42Q379.28 39.42 380.20 38.86Q381.12 38.30 381.28 38.22L381.28 38.22Q382.64 38.38 382.64 41.06Q382.64 43.74 380.16 45.38Q377.68 47.02 374.96 47.02Q372.24 47.02 370.28 46.06Q368.32 45.10 367.44 43.90Q366.56 42.70 366 41.18L366 41.18Q365.44 39.34 365.44 37.98L365.44 37.98Q365.44 32.38 368.96 29.02Q372.48 25.66 378 24.22L378 24.22Q385.28 22.78 385.60 21.58L385.60 21.58Q385.84 20.70 385.84 18.62L385.84 18.62Q385.84 14.38 381.52 14.38L381.52 14.38Q379.68 14.38 378.24 15.54Q376.80 16.70 376.80 18.46L376.80 18.46L377.28 20.38Q377.12 21.74 374.40 21.98L374.40 21.98L373.52 22.06Q371.12 22.06 369.72 20.86Q368.32 19.66 368.32 17.66L368.32 17.66Q368.32 16.38 369.16 14.82Q370 13.26 371.28 12.30Q372.56 11.34 375.24 10.58Q377.92 9.82 380.40 9.82Q382.88 9.82 384.24 9.98Q385.60 10.14 387.96 10.74Q390.32 11.34 391.88 13.02Q393.44 14.70 393.56 16.58Q393.68 18.46 393.68 21.98" style="fill: rgb(0, 0, 0);" transform="translate(-228.000,-22.992)"></path></g><g class="path" style="opacity: 0; transform-origin: 182.96px 5.43px; transform: matrix3d(0, 0, 0, 0, 0, 0, 0, 0, 0, 0, 0, 0, 0, 0, 0, 1); animation: 1s linear 0.572s 1 normal forwards running animate-znvp2s243r; transform-box: view-box;"><path d="M423.36 18.46L422.96 24.54L423.28 27.34Q423.28 28.86 420.40 28.86L420.40 28.86Q414.56 28.86 414.56 24.46L414.56 24.46Q414.56 23.42 415.12 21.58Q415.68 19.74 415.68 18.38Q415.68 17.02 414.88 16.02Q414.08 15.02 412.56 15.02Q411.04 15.02 409.96 16.10Q408.88 17.18 408.64 18.30L408.64 18.30L408.32 19.42Q407.84 21.90 407.84 27.70Q407.84 33.50 408 36.82Q408.16 40.14 408.32 41.38Q408.48 42.62 408.48 42.86L408.48 42.86Q408.48 44.86 406 46.10Q403.52 47.34 401.04 47.34Q398.56 47.34 398.56 46.30L398.56 46.30L398.96 43.82Q400.08 36.86 400.08 25.66Q400.08 14.46 399.28 10.46L399.28 10.46Q399.28 9.50 400.96 9.50L400.96 9.50Q405.28 9.50 406.72 12.46L406.72 12.46Q406.80 12.78 407 12.78Q407.20 12.78 408.08 12.06L408.08 12.06Q410.72 9.90 414.32 9.90L414.32 9.90Q416.56 9.90 418.80 10.78L418.80 10.78Q423.36 12.62 423.36 18.46L423.36 18.46" style="fill: rgb(0, 0, 0);" transform="translate(-228.000,-22.992)"></path></g><g class="path" style="opacity: 0; transform-origin: 213px -4.09px; transform: matrix3d(0, 0, 0, 0, 0, 0, 0, 0, 0, 0, 0, 0, 0, 0, 0, 1); animation: 1s linear 0.616s 1 normal forwards running animate-znvp2s243r; transform-box: view-box;"><path d="M444.24 20.06L444.24 20.06Q443.92 20.38 443.92 20.74Q443.92 21.10 445.40 21.42Q446.88 21.74 448.64 23.18Q450.40 24.62 451.28 26.30L451.28 26.30Q452.96 29.58 453.12 32.06L453.12 32.06L453.20 33.10Q453.60 42.46 456.64 45.90L456.64 45.90Q457.04 46.46 457.04 46.70L457.04 46.70Q457.04 47.58 454.80 47.58L454.80 47.58Q448.08 47.58 446.24 44.78L446.24 44.78Q445.28 43.66 445.28 37.82L445.28 37.82L445.28 35.82Q445.28 28.38 443.44 25.50L443.44 25.50Q442.48 24.14 441.08 24.14Q439.68 24.14 438.16 26.58Q436.64 29.02 436.64 30.70L436.64 30.70Q436.64 37.42 436.96 40.06Q437.28 42.70 437.28 42.78L437.28 42.78Q437.28 45.10 434.12 46.38Q430.96 47.66 428.16 47.66L428.16 47.66Q427.12 47.66 427.12 46.38L427.12 46.38L427.12 46.06Q429.04 36.22 429.04 15.02L429.04 15.02Q429.04 8.06 428.72 3.26L428.72 3.26L428.56 1.66Q428.40-0.58 427.64-2.18Q426.88-3.78 426.16-4.26L426.16-4.26L425.52-4.66Q424.96-4.98 424.96-5.38L424.96-5.38Q424.96-6.66 428.80-8.26Q432.64-9.86 435.44-9.86L435.44-9.86Q436.72-9.78 436.80-8.90L436.80-8.90Q437.20-5.70 437.20 4.26Q437.20 14.22 436.72 20.14L436.72 20.14Q436.72 21.10 437.04 21.10Q437.36 21.10 438.04 20.18Q438.72 19.26 440.44 17.26Q442.16 15.26 445.08 12.62Q448 9.98 449.80 9.98Q451.60 9.98 453.36 10.86Q455.12 11.74 455.12 12.54L455.12 12.54L454.24 13.10Q449.68 14.78 444.24 20.06" style="fill: rgb(0, 0, 0);" transform="translate(-228.000,-22.992)"></path></g></g><text font-size="40" font-family="Aladin" fill="#000000" dy="0.35em">Souls in the Dark</text>
</g>
</g><style type="text/css">@keyframes animate-znvp2s243r { 0.00% {transform: translate(0.00px,0.00px) rotate(0.00deg) scale(0.00, 0.00) skew(0deg, 0.00deg) ;opacity: 0.00;}2.00% {animation-timing-function: cubic-bezier(0.64,0.75,0.30,0.42);transform: translate(0.00px,0.00px) rotate(0.00deg) scale(0.94, 0.94) ;opacity: 0.20;}6.00% {transform: translate(0.00px,0.00px) rotate(0.00deg) scale(0.96, 0.96) ;opacity: 0.60;}8.00% {transform: translate(0.00px,0.00px) rotate(0.00deg) scale(0.96, 0.96) ;opacity: 0.80;}10.00% {animation-timing-function: cubic-bezier(0.65,0.71,0.32,0.38);transform: translate(0.00px,0.00px) rotate(0.00deg) scale(0.97, 0.97) ;opacity: 1.00;}16.00% {animation-timing-function: cubic-bezier(0.66,0.69,0.32,0.36);transform: translate(0.00px,0.00px) rotate(0.00deg) scale(0.97, 0.97) ;opacity: 1.00;}22.00% {animation-timing-function: cubic-bezier(0.66,0.69,0.33,0.35);transform: translate(0.00px,0.00px) rotate(0.00deg) scale(0.98, 0.98) ;opacity: 1.00;}28.00% {animation-timing-function: cubic-bezier(0.66,0.68,0.33,0.35);transform: translate(0.00px,0.00px) rotate(0.00deg) scale(0.98, 0.98) ;opacity: 1.00;}34.00% {animation-timing-function: cubic-bezier(0.66,0.68,0.33,0.35);transform: translate(0.00px,0.00px) rotate(0.00deg) scale(0.98, 0.98) ;opacity: 1.00;}40.00% {animation-timing-function: cubic-bezier(0.66,0.68,0.33,0.35);transform: translate(0.00px,0.00px) rotate(0.00deg) scale(0.99, 0.99) ;opacity: 1.00;}46.00% {animation-timing-function: cubic-bezier(0.66,0.68,0.33,0.34);transform: translate(0.00px,0.00px) rotate(0.00deg) scale(0.99, 0.99) ;opacity: 1.00;}52.00% {transform: translate(0.00px,0.00px) rotate(0.00deg) scale(0.99, 0.99) ;opacity: 1.00;}56.00% {animation-timing-function: cubic-bezier(0.66,0.68,0.33,0.34);transform: translate(0.00px,0.00px) rotate(0.00deg) scale(0.99, 0.99) ;opacity: 1.00;}62.00% {animation-timing-function: cubic-bezier(0.66,0.67,0.33,0.34);transform: translate(0.00px,0.00px) rotate(0.00deg) scale(0.99, 0.99) ;opacity: 1.00;}68.00% {animation-timing-function: cubic-bezier(0.66,0.67,0.33,0.34);transform: translate(0.00px,0.00px) rotate(0.00deg) scale(0.99, 0.99) ;opacity: 1.00;}74.00% {transform: translate(0.00px,0.00px) rotate(0.00deg) scale(1.00, 1.00) ;opacity: 1.00;}78.00% {animation-timing-function: cubic-bezier(0.66,0.67,0.33,0.34);transform: translate(0.00px,0.00px) rotate(0.00deg) scale(1.00, 1.00) ;opacity: 1.00;}84.00% {animation-timing-function: cubic-bezier(0.67,0.67,0.33,0.34);transform: translate(0.00px,0.00px) rotate(0.00deg) scale(1.00, 1.00) ;opacity: 1.00;}90.00% {animation-timing-function: cubic-bezier(0.66,0.67,0.33,0.34);transform: translate(0.00px,0.00px) rotate(0.00deg) scale(1.00, 1.00) ;opacity: 1.00;}96.00% {transform: translate(0.00px,0.00px) rotate(0.00deg) scale(1.00, 1.00) ;opacity: 1.00;}100.00% {transform: translate(0.00px,0.00px) rotate(0.00deg) scale(1.00, 1.00) ;opacity: 1.00;} }</style><!-- [ldio] generated by https://loading.io --></svg>