<svg xmlns="http://www.w3.org/2000/svg" xmlns:xlink="http://www.w3.org/1999/xlink" viewBox="0 0 261 250" preserveAspectRatio="xMidYMid" style="display: block; shape-rendering: auto; background: transparent;" width="261" height="250"><style type="text/css">
  .ld-text text {
    text-anchor: middle;
    dominant-baseline: middle;
    font-size: 41px;
    opacity: 0;
    user-select: none;
    pointer-events: none;
  }
</style>
<g class="ld-text" style="transform-origin:130.5px 125px;transform:scale(1)">
<g transform="translate(130.5,125)">
  <g transform="scale(0.5125) translate(0,0)"><g class="path" style="opacity: 1; transform-origin: -229.52px -2.43px; transform: matrix3d(0.91, 0, 0, 0, 0, 0.91, 0, 0, 0, 0, 0.91, 0, 0, 0, 0, 1); animation: 50s linear -30.8s infinite normal forwards running animate-jeu1df8pl3; transform-box: view-box;"><path d="M33.68 0.98L33.68 0.98L34.96-2.86Q33.12-3.90 31.08-4.54Q29.04-5.18 26.96-5.50Q24.88-5.82 22.72-5.82L22.72-5.82Q19.44-5.82 16.28-5.10Q13.12-4.38 10.52-2.78Q7.92-1.18 6.36 1.46Q4.80 4.10 4.80 7.86L4.80 7.86Q4.80 10.98 6.08 13.30Q7.36 15.62 9.52 17.30Q11.68 18.98 14.40 20.30Q17.12 21.62 19.96 22.74Q22.80 23.86 25.52 25.06Q28.24 26.26 30.40 27.74Q32.56 29.22 33.84 31.18Q35.12 33.14 35.12 35.86L35.12 35.86Q35.12 39.06 33.96 41.30Q32.80 43.54 30.76 44.90Q28.72 46.26 26.12 46.90Q23.52 47.54 20.72 47.54L20.72 47.54Q18 47.54 14.96 46.78Q11.92 46.02 9.20 44.50Q6.48 42.98 4.80 40.74L4.80 40.74L2 43.54Q4.48 46.42 7.44 48.26Q10.40 50.10 13.84 50.98Q17.28 51.86 21.04 51.86L21.04 51.86Q24.56 51.86 27.92 50.98Q31.28 50.10 34 48.22Q36.72 46.34 38.32 43.42Q39.92 40.50 39.92 36.50L39.92 36.50Q39.92 32.82 38.64 30.14Q37.36 27.46 35.16 25.58Q32.96 23.70 30.28 22.30Q27.60 20.90 24.68 19.78Q21.76 18.66 19.08 17.54Q16.40 16.42 14.20 15.06Q12 13.70 10.72 11.86Q9.44 10.02 9.44 7.46L9.44 7.46Q9.44 4.82 10.68 3.06Q11.92 1.30 13.96 0.30Q16-0.70 18.32-1.10Q20.64-1.50 22.80-1.50L22.80-1.50Q24.72-1.50 26.60-1.26Q28.48-1.02 30.28-0.46Q32.08 0.10 33.68 0.98" style="fill: rgb(0, 0, 0);" transform="translate(-250.480,-25.451)"></path></g><g class="path" style="opacity: 1; transform-origin: -189.36px 5.37px; transform: matrix3d(0.91, 0, 0, 0, 0, 0.91, 0, 0, 0, 0, 0.91, 0, 0, 0, 0, 1); animation: 50s linear -28.6s infinite normal forwards running animate-jeu1df8pl3; transform-box: view-box;"><path d="M75.92 36.10L75.92 36.10L75.92 25.62Q75.92 18.26 72.16 14.10Q68.40 9.94 61.28 9.94L61.28 9.94Q56.56 9.94 53.20 11.74Q49.84 13.54 48.08 17.02Q46.32 20.50 46.32 25.62L46.32 25.62L46.32 36.10Q46.32 40.42 48 43.94Q49.68 47.46 53.08 49.58Q56.48 51.70 61.44 51.70L61.44 51.70Q68.72 51.70 72.32 47.42Q75.92 43.14 75.92 36.10 zM71.44 25.62L71.44 25.62L71.44 36.90Q71.44 40.18 70.36 42.62Q69.28 45.06 67.04 46.38Q64.80 47.70 61.44 47.70L61.44 47.70Q58.24 47.70 55.84 46.34Q53.44 44.98 52.12 42.54Q50.80 40.10 50.80 36.90L50.80 36.90L50.80 25.62Q50.80 21.78 52 19.18Q53.20 16.58 55.56 15.26Q57.92 13.94 61.44 13.94L61.44 13.94Q64.96 13.94 67.16 15.26Q69.36 16.58 70.40 19.18Q71.44 21.78 71.44 25.62" style="fill: rgb(0, 0, 0);" transform="translate(-250.480,-25.451)"></path></g><g class="path" style="opacity: 1; transform-origin: -153.36px 5.81px; transform: matrix3d(0.91, 0, 0, 0, 0, 0.91, 0, 0, 0, 0, 0.91, 0, 0, 0, 0, 1); animation: 50s linear -26.4s infinite normal forwards running animate-jeu1df8pl3; transform-box: view-box;"><path d="M107.44 47.06L107.44 47.06L107.44 50.90L111.92 50.90L111.92 10.82L107.44 10.82L107.44 37.06Q107.44 39.22 106.64 41.06Q105.84 42.90 104.36 44.34Q102.88 45.78 100.88 46.58Q98.88 47.38 96.48 47.38L96.48 47.38Q93.44 47.38 91.28 46.38Q89.12 45.38 88 43.14Q86.88 40.90 86.88 37.22L86.88 37.22L86.88 10.82L82.32 10.82L82.32 38.34Q82.32 41.06 82.92 43.22Q83.52 45.38 84.68 46.98Q85.84 48.58 87.56 49.62Q89.28 50.66 91.48 51.18Q93.68 51.70 96.32 51.70L96.32 51.70Q98.32 51.70 100.40 51.18Q102.48 50.66 104.32 49.62Q106.16 48.58 107.44 47.06" style="fill: rgb(0, 0, 0);" transform="translate(-250.480,-25.451)"></path></g><g class="path" style="opacity: 1; transform-origin: -129.44px -2.55px; transform: matrix3d(0.91, 0, 0, 0, 0, 0.91, 0, 0, 0, 0, 0.91, 0, 0, 0, 0, 1); animation: 50s linear -24.2s infinite normal forwards running animate-jeu1df8pl3; transform-box: view-box;"><path d="M118.80-5.10L118.80 50.90L123.28 50.90L123.28-5.10L118.80-5.10" style="fill: rgb(0, 0, 0);" transform="translate(-250.480,-25.451)"></path></g><g class="path" style="opacity: 1; transform-origin: -106.2px 5.69px; transform: matrix3d(0.91, 0, 0, 0, 0, 0.91, 0, 0, 0, 0, 0.91, 0, 0, 0, 0, 1); animation: 50s linear -22s infinite normal forwards running animate-jeu1df8pl3; transform-box: view-box;"><path d="M153.60 15.78L153.60 15.78L155.44 12.74Q153.52 11.54 151.68 10.94Q149.84 10.34 148.16 10.14Q146.48 9.94 144.88 9.94L144.88 9.94Q142.48 9.94 140.16 10.58Q137.84 11.22 135.96 12.54Q134.08 13.86 132.96 15.74Q131.84 17.62 131.84 20.18L131.84 20.18Q131.84 22.82 133.08 24.70Q134.32 26.58 136.32 27.94Q138.32 29.30 140.76 30.34Q143.20 31.38 145.64 32.34Q148.08 33.30 150.08 34.46Q152.08 35.62 153.32 37.18Q154.56 38.74 154.56 40.90L154.56 40.90Q154.56 42.82 153.64 44.18Q152.72 45.54 151.24 46.46Q149.76 47.38 148.08 47.78Q146.40 48.18 144.88 48.18L144.88 48.18Q142.40 48.18 140.20 47.58Q138 46.98 136.08 45.78Q134.16 44.58 132.32 42.82L132.32 42.82L129.84 45.46Q132.64 48.66 136.64 50.50Q140.64 52.34 144.88 52.34L144.88 52.34Q147.44 52.34 149.88 51.62Q152.32 50.90 154.32 49.46Q156.32 48.02 157.52 45.86Q158.72 43.70 158.72 40.82L158.72 40.82Q158.72 37.86 157.48 35.82Q156.24 33.78 154.24 32.34Q152.24 30.90 149.80 29.82Q147.36 28.74 144.96 27.82Q142.56 26.90 140.56 25.82Q138.56 24.74 137.32 23.38Q136.08 22.02 136.08 20.02L136.08 20.02Q136.08 18.34 136.96 17.14Q137.84 15.94 139.28 15.18Q140.72 14.42 142.44 14.06Q144.16 13.70 145.76 13.70L145.76 13.70Q147.12 13.70 148.52 13.94Q149.92 14.18 151.24 14.62Q152.56 15.06 153.60 15.78" style="fill: rgb(0, 0, 0);" transform="translate(-250.480,-25.451)"></path></g><g class="path" style="opacity: 1; transform-origin: -61.64px 5.41px; transform: matrix3d(0.91, 0, 0, 0, 0, 0.91, 0, 0, 0, 0, 0.91, 0, 0, 0, 0, 1); animation: 50s linear -19.8s infinite normal forwards running animate-jeu1df8pl3; transform-box: view-box;"><path d="M186.56 10.82L186.56 50.90L191.12 50.90L191.12 10.82L186.56 10.82" style="fill: rgb(0, 0, 0);" transform="translate(-250.480,-25.451)"></path></g><g class="path" style="opacity: 1; transform-origin: -61.6px -28.67px; transform: matrix3d(0.91, 0, 0, 0, 0, 0.91, 0, 0, 0, 0, 0.91, 0, 0, 0, 0, 1); animation: 50s linear -17.6s infinite normal forwards running animate-jeu1df8pl3; transform-box: view-box;"><path d="M188.88-5.90L188.88-5.90Q187.84-5.90 187-5.10Q186.16-4.30 186.16-3.18L186.16-3.18Q186.16-2.14 187-1.34Q187.84-0.54 188.88-0.54L188.88-0.54Q190-0.54 190.80-1.34Q191.60-2.14 191.60-3.18L191.60-3.18Q191.60-4.30 190.80-5.10Q190-5.90 188.88-5.90" style="fill: rgb(0, 0, 0);" transform="translate(-250.480,-25.451)"></path></g><g class="path" style="opacity: 1; transform-origin: -38.36px 5.05px; transform: matrix3d(0.91, 0, 0, 0, 0, 0.91, 0, 0, 0, 0, 0.91, 0, 0, 0, 0, 1); animation: 50s linear -15.4s infinite normal forwards running animate-jeu1df8pl3; transform-box: view-box;"><path d="M222.48 23.54L222.48 23.54L222.48 50.90L226.88 50.90L226.88 23.30Q226.88 20.74 226.28 18.70Q225.68 16.66 224.52 15.06Q223.36 13.46 221.68 12.34Q220 11.22 217.80 10.66Q215.60 10.10 212.96 10.10L212.96 10.10Q210.96 10.10 209 10.54Q207.04 10.98 205.24 11.74Q203.44 12.50 201.92 13.54L201.92 13.54L201.92 10.82L197.36 10.82L197.36 50.90L201.92 50.90L201.92 16.90Q203.60 15.94 205.20 15.34Q206.80 14.74 208.52 14.42Q210.24 14.10 212.08 14.10L212.08 14.10Q214 14.10 215.84 14.58Q217.68 15.06 219.20 16.14Q220.72 17.22 221.60 19.02Q222.48 20.82 222.48 23.54" style="fill: rgb(0, 0, 0);" transform="translate(-250.480,-25.451)"></path></g><g class="path" style="opacity: 1; transform-origin: 11.88px -2.03px; transform: matrix3d(0.91, 0, 0, 0, 0, 0.91, 0, 0, 0, 0, 0.91, 0, 0, 0, 0, 1); animation: 50s linear -13.2s infinite normal forwards running animate-jeu1df8pl3; transform-box: view-box;"><path d="M259.76 40.34L259.76 40.34L259.76 15.06L267.52 15.06L269.44 10.90L259.76 10.90L259.76-5.10L255.28-5.10L255.28 40.34Q255.28 44.98 257.28 47.78Q259.28 50.58 263.68 51.94L263.68 51.94L265.04 48.50Q263.28 47.86 262.12 46.78Q260.96 45.70 260.36 44.06Q259.76 42.42 259.76 40.34" style="fill: rgb(0, 0, 0);" transform="translate(-250.480,-25.451)"></path></g><g class="path" style="opacity: 1; transform-origin: 39.84px -2.55px; transform: matrix3d(0.91, 0, 0, 0, 0, 0.91, 0, 0, 0, 0, 0.91, 0, 0, 0, 0, 1); animation: 50s linear -11s infinite normal forwards running animate-jeu1df8pl3; transform-box: view-box;"><path d="M280.08 13.54L280.08 13.54L280.08-5.10L275.52-5.10L275.52 50.90L280.08 50.90L280.08 16.90Q281.76 15.94 283.40 15.34Q285.04 14.74 286.76 14.42Q288.48 14.10 290.32 14.10L290.32 14.10Q292.24 14.10 294.08 14.54Q295.92 14.98 297.40 16.06Q298.88 17.14 299.76 18.94Q300.64 20.74 300.64 23.46L300.64 23.46L300.64 50.90L305.12 50.90L305.12 23.22Q305.12 20.66 304.52 18.58Q303.92 16.50 302.76 14.94Q301.60 13.38 299.92 12.30Q298.24 11.22 296.04 10.66Q293.84 10.10 291.20 10.10L291.20 10.10Q289.20 10.10 287.24 10.54Q285.28 10.98 283.44 11.74Q281.60 12.50 280.08 13.54" style="fill: rgb(0, 0, 0);" transform="translate(-250.480,-25.451)"></path></g><g class="path" style="opacity: 1; transform-origin: 75.32px 5.53px; transform: matrix3d(0.91, 0, 0, 0, 0, 0.91, 0, 0, 0, 0, 0.91, 0, 0, 0, 0, 1); animation: 50s linear -8.8s infinite normal forwards running animate-jeu1df8pl3; transform-box: view-box;"><path d="M315.84 40.18L315.84 40.18L315.84 35.22L340.24 33.94L340.24 23.54Q340.24 19.06 338.52 16.10Q336.80 13.14 333.64 11.62Q330.48 10.10 326.16 10.10L326.16 10.10Q321.92 10.10 318.56 11.62Q315.20 13.14 313.28 16.18Q311.36 19.22 311.36 23.78L311.36 23.78L311.36 40.18Q311.36 43.54 312.36 45.78Q313.36 48.02 315.20 49.38Q317.04 50.74 319.60 51.30Q322.16 51.86 325.20 51.86L325.20 51.86Q328.24 51.86 331.76 50.86Q335.28 49.86 338.24 48.10L338.24 48.10L336.48 44.66Q333.52 46.18 330.64 47.10Q327.76 48.02 324.80 48.02L324.80 48.02Q322.88 48.02 321.24 47.58Q319.60 47.14 318.40 46.22Q317.20 45.30 316.52 43.82Q315.84 42.34 315.84 40.18 zM335.76 22.98L335.76 22.98L335.76 29.94L315.84 30.82L315.84 23.86Q315.84 20.66 317.08 18.42Q318.32 16.18 320.64 15.02Q322.96 13.86 326.08 13.86L326.08 13.86Q328.88 13.86 331.04 14.98Q333.20 16.10 334.48 18.14Q335.76 20.18 335.76 22.98" style="fill: rgb(0, 0, 0);" transform="translate(-250.480,-25.451)"></path></g><g class="path" style="opacity: 1; transform-origin: 134.68px -2.55px; transform: matrix3d(0.91, 0, 0, 0, 0, 0.91, 0, 0, 0, 0, 0.91, 0, 0, 0, 0, 1); animation: 50s linear -6.6s infinite normal forwards running animate-jeu1df8pl3; transform-box: view-box;"><path d="M383.44-5.10L383.44-5.10L368.32-5.10L368.32 50.90L385.04 50.90Q390.72 50.90 394.48 49.10Q398.24 47.30 400.12 43.74Q402 40.18 402 34.90L402 34.90L402 12.90Q402 7.46 399.88 3.42Q397.76-0.62 393.64-2.86Q389.52-5.10 383.44-5.10 zM383.68 46.90L383.68 46.90L372.88 46.90L372.88-1.10L384.24-1.10Q388.96-1.10 391.84 0.66Q394.72 2.42 396.08 5.34Q397.44 8.26 397.44 11.70L397.44 11.70L397.44 35.70Q397.44 38.42 396.60 40.54Q395.76 42.66 394.04 44.06Q392.32 45.46 389.76 46.18Q387.20 46.90 383.68 46.90" style="fill: rgb(0, 0, 0);" transform="translate(-250.480,-25.451)"></path></g><g class="path" style="opacity: 1; transform-origin: 173.08px 5.49px; transform: matrix3d(0.91, 0, 0, 0, 0, 0.91, 0, 0, 0, 0, 0.91, 0, 0, 0, 0, 1); animation: 50s linear -4.4s infinite normal forwards running animate-jeu1df8pl3; transform-box: view-box;"><path d="M434.48 22.90L434.48 22.90Q432.64 21.78 430.36 20.82Q428.08 19.86 425.60 19.26Q423.12 18.66 420.48 18.66L420.48 18.66Q418.08 18.66 415.88 19.30Q413.68 19.94 411.92 21.34Q410.16 22.74 409.16 25.06Q408.16 27.38 408.16 30.74L408.16 30.74L408.16 37.38Q408.16 41.78 409.56 44.66Q410.96 47.54 413.40 49.10Q415.84 50.66 419.16 51.22Q422.48 51.78 426.32 51.70L426.32 51.70Q427.52 51.70 429.16 51.62Q430.80 51.54 432.52 51.42Q434.24 51.30 435.72 51.18Q437.20 51.06 438.12 50.98Q439.04 50.90 438.96 50.90L438.96 50.90L438.96 27.86Q438.96 22.90 438.16 19.50Q437.36 16.10 435.48 14.06Q433.60 12.02 430.40 11.10Q427.20 10.18 422.32 10.18L422.32 10.18L422.16 13.62Q424.56 13.62 426.80 13.98Q429.04 14.34 430.76 15.30Q432.48 16.26 433.48 18.10Q434.48 19.94 434.48 22.90 zM434.48 26.66L434.48 26.66L434.48 47.22Q434.48 47.22 434.12 47.26Q433.76 47.30 433.04 47.34Q432.32 47.38 431.28 47.50Q430.24 47.62 428.92 47.70Q427.60 47.78 426 47.86L426 47.86Q422 48.02 419.36 47.42Q416.72 46.82 415.24 45.42Q413.76 44.02 413.16 41.86Q412.56 39.70 412.56 36.82L412.56 36.82L412.56 30.90Q412.56 28.18 413.32 26.50Q414.08 24.82 415.28 23.98Q416.48 23.14 417.76 22.82Q419.04 22.50 420.08 22.50L420.08 22.50Q422.64 22.50 425.12 23.06Q427.60 23.62 430 24.58Q432.40 25.54 434.48 26.66" style="fill: rgb(0, 0, 0);" transform="translate(-250.480,-25.451)"></path></g><g class="path" style="opacity: 1; transform-origin: 206.08px 4.96px; transform: matrix3d(0.91, 0, 0, 0, 0, 0.91, 0, 0, 0, 0, 0.91, 0, 0, 0, 0, 1); animation: 50s linear -2.2s infinite normal forwards running animate-jeu1df8pl3; transform-box: view-box;"><path d="M467.12 14.02L467.12 14.02L467.44 10.18Q467.44 10.18 466.36 10.02Q465.28 9.86 463.84 9.94L463.84 9.94Q459.52 10.18 456.36 11.14Q453.20 12.10 450.24 13.46L450.24 13.46L450.24 10.82L445.68 10.82L445.68 50.90L450.24 50.90L450.24 18.18Q451.36 17.46 452.96 16.70Q454.56 15.94 456.40 15.34Q458.24 14.74 460.16 14.38Q462.08 14.02 463.76 13.94L463.76 13.94Q465.12 13.86 466.12 13.94Q467.12 14.02 467.12 14.02" style="fill: rgb(0, 0, 0);" transform="translate(-250.480,-25.451)"></path></g><g class="path" style="opacity: 1; transform-origin: 237.8px -2.55px; transform: matrix3d(0.91, 0, 0, 0, 0, 0.91, 0, 0, 0, 0, 0.91, 0, 0, 0, 0, 1); animation: 50s linear 0s infinite normal forwards running animate-jeu1df8pl3; transform-box: view-box;"><path d="M502.96 50.90L485.52 22.74L497.36 12.34L494.16 9.30L478.16 24.10L478.16-5.10L473.60-5.10L473.60 50.90L478.16 50.90L478.16 29.06L482.32 25.54L497.60 50.90L502.96 50.90" style="fill: rgb(0, 0, 0);" transform="translate(-250.480,-25.451)"></path></g></g><text font-size="41" font-family="Advent Pro" fill="#000000" dy="0.35em">Souls in the Dark</text>
</g>
</g><style type="text/css">@keyframes animate-jeu1df8pl3 { 0.00% {transform: translate(0.00px,0.00px) rotate(0.00deg) scale(0.91, 0.91) skew(0deg, 0.00deg) ;opacity: 1.00;}4.00% {transform: translate(0.00px,0.00px) rotate(0.00deg) scale(0.91, 0.91) ;}8.00% {animation-timing-function: cubic-bezier(0.69,0.60,0.35,0.27);transform: translate(0.00px,0.00px) rotate(0.00deg) scale(0.91, 0.91) ;}14.00% {transform: translate(0.00px,0.00px) rotate(0.00deg) scale(0.93, 0.93) ;}18.00% {transform: translate(0.00px,0.00px) rotate(0.00deg) scale(0.94, 0.94) ;}22.00% {animation-timing-function: cubic-bezier(0.67,0.66,0.34,0.33);transform: translate(0.00px,0.00px) rotate(0.00deg) scale(0.96, 0.96) ;}26.00% {transform: translate(0.00px,0.00px) rotate(0.00deg) scale(0.97, 0.97) ;}30.00% {transform: translate(0.00px,0.00px) rotate(0.00deg) scale(0.99, 0.99) ;}34.00% {animation-timing-function: cubic-bezier(0.65,0.71,0.32,0.38);transform: translate(0.00px,0.00px) rotate(0.00deg) scale(1.01, 1.01) ;}40.00% {animation-timing-function: cubic-bezier(0.64,0.74,0.31,0.41);transform: translate(0.00px,0.00px) rotate(0.00deg) scale(1.02, 1.02) ;}46.00% {animation-timing-function: cubic-bezier(0.60,0.91,0.23,0.63);transform: translate(0.00px,0.00px) rotate(0.00deg) scale(1.03, 1.03) ;}50.00% {transform: translate(0.00px,0.00px) rotate(0.00deg) scale(1.03, 1.03) ;}54.00% {transform: translate(0.00px,0.00px) rotate(0.00deg) scale(1.03, 1.03) ;}58.00% {animation-timing-function: cubic-bezier(0.69,0.60,0.35,0.27);transform: translate(0.00px,0.00px) rotate(0.00deg) scale(1.03, 1.03) ;}64.00% {transform: translate(0.00px,0.00px) rotate(0.00deg) scale(1.01, 1.01) ;}68.00% {transform: translate(0.00px,0.00px) rotate(0.00deg) scale(1.00, 1.00) ;}72.00% {animation-timing-function: cubic-bezier(0.67,0.66,0.34,0.33);transform: translate(0.00px,0.00px) rotate(0.00deg) scale(0.98, 0.98) ;}76.00% {animation-timing-function: cubic-bezier(0.66,0.68,0.33,0.35);transform: translate(0.00px,0.00px) rotate(0.00deg) scale(0.97, 0.97) ;}82.00% {animation-timing-function: cubic-bezier(0.65,0.71,0.32,0.38);transform: translate(0.00px,0.00px) rotate(0.00deg) scale(0.94, 0.94) ;}88.00% {animation-timing-function: cubic-bezier(0.65,0.73,0.31,0.40);transform: translate(0.00px,0.00px) rotate(0.00deg) scale(0.92, 0.92) ;}94.00% {animation-timing-function: cubic-bezier(0.63,0.80,0.28,0.48);transform: translate(0.00px,0.00px) rotate(0.00deg) scale(0.91, 0.91) ;}100.00% {animation-timing-function: cubic-bezier(0.63,0.80,0.28,0.48);transform: translate(0.00px,0.00px) rotate(0.00deg) scale(0.91, 0.91) ;} }</style><!-- [ldio] generated by https://loading.io --></svg>